<svg xmlns="http://www.w3.org/2000/svg" viewBox="0 0 24 24" width="512" height="512" fill="none" style="color:#1B1A17">
  <!-- Tokn mark: segmented ring, 17 ticks, 270° sweep from 135°, gradual fade -->
  <line x1="7.62" y1="16.38" x2="5.14" y2="18.86" stroke="currentColor" stroke-width="1.9" stroke-linecap="round" opacity="1.0"/>
  <line x1="6.53" y1="14.92" x2="3.45" y2="16.57" stroke="currentColor" stroke-width="1.9" stroke-linecap="round" opacity="0.954"/>
  <line x1="5.92" y1="13.21" x2="2.49" y2="13.89" stroke="currentColor" stroke-width="1.9" stroke-linecap="round" opacity="0.907"/>
  <line x1="5.83" y1="11.39" x2="2.35" y2="11.05" stroke="currentColor" stroke-width="1.9" stroke-linecap="round" opacity="0.861"/>
  <line x1="6.27" y1="9.63" x2="3.04" y2="8.29" stroke="currentColor" stroke-width="1.9" stroke-linecap="round" opacity="0.815"/>
  <line x1="7.21" y1="8.07" x2="4.50" y2="5.85" stroke="currentColor" stroke-width="1.9" stroke-linecap="round" opacity="0.769"/>
  <line x1="8.56" y1="6.84" x2="6.61" y2="3.93" stroke="currentColor" stroke-width="1.9" stroke-linecap="round" opacity="0.723"/>
  <line x1="10.20" y1="6.07" x2="9.18" y2="2.72" stroke="currentColor" stroke-width="1.9" stroke-linecap="round" opacity="0.676"/>
  <line x1="12.00" y1="5.80" x2="12.00" y2="2.30" stroke="currentColor" stroke-width="1.9" stroke-linecap="round" opacity="0.63"/>
  <line x1="13.80" y1="6.07" x2="14.82" y2="2.72" stroke="currentColor" stroke-width="1.9" stroke-linecap="round" opacity="0.584"/>
  <line x1="15.44" y1="6.84" x2="17.39" y2="3.93" stroke="currentColor" stroke-width="1.9" stroke-linecap="round" opacity="0.537"/>
  <line x1="16.79" y1="8.07" x2="19.50" y2="5.85" stroke="currentColor" stroke-width="1.9" stroke-linecap="round" opacity="0.491"/>
  <line x1="17.73" y1="9.63" x2="20.96" y2="8.29" stroke="currentColor" stroke-width="1.9" stroke-linecap="round" opacity="0.445"/>
  <line x1="18.17" y1="11.39" x2="21.65" y2="11.05" stroke="currentColor" stroke-width="1.9" stroke-linecap="round" opacity="0.399"/>
  <line x1="18.08" y1="13.21" x2="21.51" y2="13.89" stroke="currentColor" stroke-width="1.9" stroke-linecap="round" opacity="0.353"/>
  <line x1="17.47" y1="14.92" x2="20.55" y2="16.57" stroke="currentColor" stroke-width="1.9" stroke-linecap="round" opacity="0.306"/>
  <line x1="16.38" y1="16.38" x2="18.86" y2="18.86" stroke="currentColor" stroke-width="1.9" stroke-linecap="round" opacity="0.26"/>
</svg>
